<svg xmlns="http://www.w3.org/2000/svg" width="780" height="440" viewBox="0 0 780 440"><defs><style>.d{fill:#fff;}.e{fill:#9180f4;}.f{fill:#f3f4f4;}.g{fill:#ac44a8;}.h{fill:#e0447c;}.i{fill:#c44eb9;}.j{fill-rule:evenodd;}.j,.k{fill:#ff95c1;}.l{fill:#162020;}.m{fill:#ed7024;}.n{fill:#c1c1f7;}.o{fill:#ffb180;}.p{fill:#6c2277;}</style></defs><g id="a"><rect class="i" x=".0018" y=".0014" width="780" height="440"></rect></g><g id="b"><g><path class="m" d="M99.6519,50.1733h125.6475c9.6006,0,17.3834,7.7829,17.3834,17.3834V368.4854c0,9.6006-7.7828,17.3835-17.3834,17.3835H100.5342c-9.5807,0-17.3553-7.7518-17.3833-17.3324l-.8821-300.9287c-.0284-9.6205,7.7627-17.4344,17.3831-17.4344Z"></path><path d="M225.2993,51.1733c9.0338,0,16.3834,7.3495,16.3834,16.3834V368.4854c0,9.0339-7.3496,16.3835-16.3834,16.3835H100.5342c-9.0075,0-16.3571-7.328-16.3833-16.3354l-.8821-300.9287c-.0129-4.3852,1.6851-8.5105,4.7813-11.6159,3.0963-3.1054,7.2166-4.8156,11.6017-4.8156h125.6475m0-1H99.6519c-9.6204,0-17.4114,7.8139-17.3831,17.4345l.8821,300.9286c.028,9.5807,7.8026,17.3325,17.3833,17.3325h124.7651c9.6006,0,17.3834-7.7829,17.3834-17.3835V67.5567c0-9.6005-7.7828-17.3834-17.3834-17.3834h0Z"></path></g><g><g><circle class="g" cx="116.9016" cy="98.6617" r="13.9789" transform="translate(-35.9736 104.0742) rotate(-42.1912)"></circle><path d="M116.9055,84.6828v1h.0001c7.0882,0,12.9084,5.7682,12.9743,12.8583,.0664,7.1563-5.7016,13.0324-12.8578,13.0989l-.1233,.0006c-7.0889,0-12.9097-5.7682-12.9755-12.8583-.0665-7.1563,5.7015-13.0324,12.8578-13.0989l.1234-.0006,.0011-1m-.0012,0c-.0438,0-.0888,.0002-.1326,.0006-7.72,.0717-13.9201,6.3882-13.8484,14.1082,.0713,7.6762,6.3153,13.849,13.9755,13.849,.0438,0,.0888-.0002,.1326-.0006,7.72-.0717,13.9201-6.3882,13.8484-14.1081-.0713-7.6762-6.3153-13.8497-13.9755-13.849h0Z"></path></g><g><path class="k" d="M128.1226,106.915c-.8534-2.9095-4.3034-5.0676-11.6209-4.9996-7.2814,.0677-10.1568,2.2629-10.821,5.1649,2.5786,3.4123,6.6834,5.6022,11.2887,5.5594,4.5863-.0426,8.636-2.2893,11.1532-5.7247Z"></path><path class="l" d="M116.8408,113.2651c-4.5557,0-8.9062-2.1641-11.6592-5.8076-.1113-.1475-.1514-.3364-.1104-.5161,.8438-3.6875,4.6875-5.5884,11.4248-5.6509,8.7471-.0923,11.4844,2.918,12.2256,5.4487,.0547,.1865,.0195,.3882-.0957,.5449-2.752,3.7578-6.999,5.9375-11.6504,5.9805-.0449,.0005-.0898,.0005-.1348,.0005Zm-10.4785-6.3242c2.5508,3.2207,6.5205,5.147,10.6016,5.0737,4.1475-.0386,7.9424-1.9341,10.4629-5.2139-1.04-2.8062-4.915-4.3169-10.9189-4.2603-5.8936,.0547-9.3047,1.5347-10.1455,4.4004Z"></path></g><g><circle class="k" cx="116.9016" cy="95.1642" r="6.3557" transform="translate(-33.7903 91.3996) rotate(-37.7164)"></circle><path class="l" d="M116.9004,102.145c-3.8184,0-6.9434-3.0889-6.9795-6.916-.0352-3.8491,3.0674-7.0093,6.916-7.0454,3.8213-.0078,7.0098,3.0679,7.0449,6.9155,.0176,1.8647-.6924,3.6245-1.998,4.9551-1.3066,1.3306-3.0527,2.0728-4.917,2.0903-.0215,0-.0439,.0005-.0664,.0005Zm.0547-1.2505l.0059,.625-.0059-.625c1.5303-.0142,2.9639-.6235,4.0361-1.7158,1.0723-1.0928,1.6553-2.5371,1.6406-4.0679-.0293-3.1416-2.5947-5.6777-5.7295-5.6777-.0186,0-.0361,.0005-.0537,.0005-3.1602,.0293-5.707,2.624-5.6777,5.7837,.0293,3.1416,2.5947,5.6777,5.7305,5.6777,.0176,0,.0352-.0005,.0537-.0005Z"></path></g></g><g><rect class="d" x="214.0129" y="83.6468" width="1.2506" height="28.4818" transform="translate(-6.351 180.4428) rotate(-45)"></rect><rect class="d" x="200.3909" y="97.2627" width="28.4947" height="1.2504" transform="translate(-3.791 186.9962) rotate(-46.7089)"></rect></g><g><rect class="d" x="105.7627" y="74.689" width="59.2588" height="1.25"></rect><rect class="d" x="170.2891" y="74.689" width="59.2588" height="1.25"></rect></g><g><rect class="p" x="85.5481" y="342.8704" width="155.7298" height="44.6517"></rect><path d="M240.278,343.8704v42.6517H86.5481v-42.6517H240.278m1-1H85.5481v44.6517H241.278v-44.6517h0Z"></path></g><g><g><path class="k" d="M249.403,124.6282h-.4866v-54.4013c0-13.7592-11.1538-24.9129-24.9129-24.9129H102.9556c-14.1931,0-25.8058,11.6125-25.8058,25.8056v19.9338c-.8062,0-1.4596,.6536-1.4596,1.4598v10.2185c0,.8063,.6534,1.4598,1.4596,1.4598v12.1647c-.8062,0-1.4596,.6535-1.4596,1.4599v21.8966c0,.8063,.6534,1.4598,1.4596,1.4598v7.2988c-.8062,0-1.4596,.6535-1.4596,1.4599v21.8966c0,.8063,.6534,1.4598,1.4596,1.4598v195.5127c0,14.2372,11.6489,25.886,25.8862,25.886h120.9675c13.7022,0,24.9129-11.2108,24.9129-24.9129V165.0153h.4866c.8063,0,1.46-.6536,1.46-1.4598v-37.4676c0-.8062-.6537-1.4597-1.46-1.4597Zm-9.7318,243.0498c0,8.4964-6.2742,15.8164-14.7708,15.8164H103.7393c-8.4963,0-15.8843-7.32-15.8843-15.8164V69.2677c0-8.4964,7.388-14.7085,15.8843-14.7085h14.0074c2.9611,0,4.056-.3379,4.2348,3.4151,.0931,1.9501,.8087,3.4656,1.9545,4.7199,1.1458,1.2306,2.7213,2.2421,4.5336,2.8094,1.2288,.3846,2.5975,.7337,3.9025,.7337h64.0256c1.3051,0,2.6738-.4286,3.9026-.8132,1.8123-.5673,3.3878-1.5142,4.5334-2.7225,1.1458-1.2318,1.8615-2.6826,1.9547-4.6326,.1791-3.7531,1.2736-3.5098,4.2348-3.5098h13.877c8.4966,0,14.7708,6.2121,14.7708,14.7085V367.678Z"></path><path class="l" d="M224.0039,395.3105H103.0361c-14.6182,0-26.5117-11.8926-26.5117-26.5107V173.8164c-.8447-.2661-1.459-1.0571-1.459-1.9888v-21.8965c0-.9321,.6143-1.7231,1.459-1.9893v-6.2402c-.8447-.2661-1.459-1.0571-1.459-1.9893v-21.8965c0-.9321,.6143-1.7231,1.459-1.9893v-11.106c-.8447-.2661-1.459-1.0571-1.459-1.9893v-10.2183c0-.9321,.6143-1.7231,1.459-1.9893v-19.4043c0-14.5737,11.8574-26.4307,26.4316-26.4307h121.0479c14.0811,0,25.5371,11.4565,25.5371,25.5381v53.7803c1.0859,.0713,1.9473,.9771,1.9473,2.0806v37.4678c0,1.103-.8613,2.0088-1.9473,2.0801v204.1377c0,14.0811-11.4561,25.5371-25.5371,25.5371ZM102.9561,45.939c-13.8848,0-25.1816,11.2959-25.1816,25.1807v19.9336c0,.3452-.2803,.625-.625,.625-.46,0-.834,.3745-.834,.835v10.2183c0,.4604,.374,.835,.834,.835,.3447,0,.625,.2798,.625,.625v12.1646c0,.3452-.2803,.625-.625,.625-.46,0-.834,.3745-.834,.835v21.8965c0,.4604,.374,.835,.834,.835,.3447,0,.625,.2798,.625,.625v7.2988c0,.3452-.2803,.625-.625,.625-.46,0-.834,.3745-.834,.835v21.8965c0,.46,.374,.8345,.834,.8345,.3447,0,.625,.2798,.625,.625v195.5127c0,13.9287,11.332,25.2607,25.2617,25.2607h120.9678c13.3916,0,24.2871-10.8955,24.2871-24.2871V165.0151c0-.3452,.2803-.625,.625-.625h.4873c.46,0,.835-.3745,.835-.8345v-37.4678c0-.4604-.375-.835-.835-.835h-.4873c-.3447,0-.625-.2798-.625-.625v-54.4009c0-13.3926-10.8955-24.2881-24.2871-24.2881H102.9561Zm121.9443,338.1802H103.7393c-8.7939,0-16.5088-7.6826-16.5088-16.4414V69.2676c0-8.5981,7.252-15.3335,16.5088-15.3335l14.6787-.0044c2.7148-.0127,4.0029,.1343,4.1875,4.0146,.0811,1.6816,.667,3.0972,1.792,4.3281,1.1025,1.1836,2.6162,2.1206,4.2588,2.6343,1.0488,.3286,2.4189,.7056,3.7158,.7056h64.0254c1.207,0,2.5352-.415,3.707-.7812,1.7236-.54,3.1992-1.4243,4.2764-2.5596,1.1357-1.2217,1.7041-2.5684,1.7832-4.2324,.1895-3.9521,1.5273-4.1289,4.3535-4.1064l14.3828,.0015c8.9209,0,15.3955,6.4487,15.3955,15.3335V367.6777c0,9.2197-6.7627,16.4414-15.3955,16.4414ZM103.7393,55.1841c-8.5566,0-15.2588,6.186-15.2588,14.0835V367.6777c0,8.0928,7.1299,15.1914,15.2588,15.1914h121.1611c7.9316,0,14.1455-6.6729,14.1455-15.1914V69.2676c0-8.1606-5.9492-14.0835-14.1455-14.0835l-14.3896-.002c-2.5635-.0103-2.959-.0146-3.0986,2.9165-.0928,1.9487-.7861,3.5938-2.1201,5.0288-1.2275,1.2939-2.8867,2.293-4.8047,2.8931-1.2676,.3965-2.6924,.8418-4.0898,.8418h-64.0254c-1.4668,0-2.9561-.4077-4.0889-.7622-1.8467-.5776-3.5527-1.6362-4.8037-2.98-1.334-1.459-2.0273-3.1313-2.1221-5.1162-.1367-2.8501-.502-2.8477-2.9277-2.8242l-.6826,.0044h-14.0078Z"></path></g><g><g><circle class="f" cx="181.7729" cy="56.5179" r="3.1561"></circle><path class="l" d="M181.7725,60.2988c-2.084,0-3.7803-1.6958-3.7803-3.7808s1.6963-3.7812,3.7803-3.7812,3.7812,1.6963,3.7812,3.7812-1.6963,3.7808-3.7812,3.7808Zm0-6.312c-1.3955,0-2.5303,1.1357-2.5303,2.5312s1.1348,2.5308,2.5303,2.5308,2.5312-1.1353,2.5312-2.5308-1.1357-2.5312-2.5312-2.5312Z"></path></g><path class="l" d="M173.5479,57.4355h-31.9238c-.3447,0-.625-.2798-.625-.625s.2803-.625,.625-.625h31.9238c.3447,0,.625,.2798,.625,.625s-.2803,.625-.625,.625Z"></path></g></g><g><path class="d" d="M205.8486,367.9531c-.3115,0-.6191-.1055-.8672-.2979-1.8936-1.4639-5.2041-4.1787-6.0938-5.9043-1.2168-2.3623-.4805-5.4023,1.6416-6.7764,1.6855-1.0898,3.918-.8027,5.3193,.6045,1.4023-1.4072,3.6377-1.6914,5.3184-.6055,0,.001,.001,.001,.001,.001,2.1221,1.373,2.8594,4.4131,1.6426,6.7764-.8877,1.7217-4.1992,4.4385-6.0938,5.9043-.25,.1924-.5576,.2979-.8682,.2979Zm-3.0391-12.4131c-.5566,0-1.1104,.167-1.6016,.4844-1.5977,1.0342-2.1406,3.3467-1.209,5.1543,.8301,1.6113,4.6094,4.6074,5.7471,5.4883,.0781,.0605,.1279,.0596,.2061-.001,3.0391-2.3516,5.1885-4.4033,5.7471-5.4873,.9307-1.8076,.3877-4.1201-1.2109-5.1553-1.3564-.876-3.1553-.4766-4.1318,.8848-.1172,.1641-.3066,.2607-.5078,.2607h0c-.2012,0-.3906-.0967-.5078-.2607-.624-.8691-1.5459-1.3682-2.5312-1.3682Z"></path><g><path class="d" d="M226.0908,367.7705c-.0381,0-.0771-.0039-.1162-.0107-.2607-.0498-.4619-.2588-.502-.5215l-1.0576-7.0361c-.0381-.2568,.0859-.5098,.3115-.6377l7.5635-4.2529c.2471-.1377,.5537-.0947,.751,.1055,.1982,.2002,.2373,.5078,.0967,.752l-6.5049,11.2891c-.1133,.1953-.3213,.3125-.542,.3125Zm-.375-7.3281l.7266,4.8408,4.4756-7.7656-5.2021,2.9248Z"></path><path class="d" d="M224.9609,360.6172c-.1465,0-.293-.0518-.4092-.1523l-5.3828-4.6523c-.2002-.1738-.2695-.4551-.1719-.7021,.0986-.2471,.3457-.4189,.6064-.3945l13.0186,.5293c.2812,.0107,.5205,.209,.584,.4834,.0635,.2734-.0645,.5566-.3125,.6904l-7.6357,4.123c-.0928,.0508-.1953,.0752-.2969,.0752Zm-3.6201-4.5801l3.7021,3.2002,5.2529-2.8359-8.9551-.3643Z"></path></g></g><path class="d" d="M180.6299,369.2988H102.8418c-4.7734,0-8.6562-3.8828-8.6562-8.6553s3.8828-8.6562,8.6562-8.6562h77.7881c4.7734,0,8.6562,3.8828,8.6562,8.6562s-3.8828,8.6553-8.6562,8.6553Zm-77.7881-16.0615c-4.084,0-7.4062,3.3223-7.4062,7.4062s3.3223,7.4053,7.4062,7.4053h77.7881c4.084,0,7.4062-3.3223,7.4062-7.4053s-3.3223-7.4062-7.4062-7.4062H102.8418Z"></path><g><path class="h" d="M326.3753,50.1733h125.6475c9.6006,0,17.3834,7.7829,17.3834,17.3834V368.4854c0,9.6006-7.7828,17.3835-17.3834,17.3835h-124.7652c-9.5807,0-17.3553-7.7518-17.3833-17.3324l-.8821-300.9287c-.0284-9.6205,7.7627-17.4344,17.3831-17.4344Z"></path><path d="M452.0227,51.1733c9.0338,0,16.3834,7.3495,16.3834,16.3834V368.4854c0,9.0339-7.3496,16.3835-16.3834,16.3835h-124.7651c-9.0076,0-16.3571-7.328-16.3833-16.3354l-.8821-300.9287c-.0129-4.3853,1.6852-8.5105,4.7814-11.616,3.0963-3.1054,7.2166-4.8155,11.6017-4.8155h125.6475m0-1h-125.6475c-9.6204,0-17.4114,7.8139-17.3831,17.4345l.8821,300.9286c.028,9.5807,7.8026,17.3325,17.3833,17.3325h124.7651c9.6006,0,17.3834-7.7829,17.3834-17.3835V67.5567c0-9.6005-7.7828-17.3834-17.3834-17.3834h0Z"></path></g><g><g><circle class="g" cx="343.625" cy="98.6617" r="13.9789" transform="translate(22.7686 256.3431) rotate(-42.1912)"></circle><path d="M343.6289,84.6828v1h.0001c7.0881,0,12.9083,5.7682,12.9742,12.8583,.0665,7.1563-5.7015,13.0324-12.8578,13.0989l-.1232,.0006c-7.0889,0-12.9097-5.7682-12.9756-12.8583-.0665-7.1563,5.7015-13.0324,12.8578-13.0989l.1233-.0006,.0011-1m-.0012,0c-.0437,0-.0887,.0002-.1326,.0006-7.72,.0717-13.92,6.3882-13.8484,14.1082,.0714,7.6762,6.3154,13.849,13.9756,13.849,.0437,0,.0887-.0002,.1326-.0006,7.72-.0717,13.92-6.3882,13.8484-14.1081-.0714-7.6762-6.3154-13.8497-13.9756-13.849h0Z"></path></g><g><path class="k" d="M354.846,106.915c-.8534-2.9095-4.3034-5.0676-11.6209-4.9996-7.2814,.0677-10.1568,2.2629-10.821,5.1649,2.5786,3.4123,6.6834,5.6022,11.2887,5.5594,4.5863-.0426,8.636-2.2893,11.1532-5.7247Z"></path><path class="l" d="M343.5645,113.2651c-4.5557,0-8.9062-2.1641-11.6592-5.8076-.1113-.1475-.1514-.3364-.1104-.5161,.8438-3.6875,4.6875-5.5884,11.4238-5.6509,8.7783-.0947,11.4844,2.918,12.2266,5.4487,.0547,.1865,.0195,.3882-.0957,.5449-2.752,3.7578-6.999,5.9375-11.6514,5.9805-.0449,.0005-.0898,.0005-.1338,.0005Zm-10.4785-6.3242c2.5254,3.1885,6.4121,5.0742,10.4775,5.0742,.041,0,.082,0,.123-.0005,4.1475-.0386,7.9434-1.9341,10.4629-5.2134-1.04-2.8066-4.9346-4.3174-10.9189-4.2607-5.8936,.0547-9.3037,1.5347-10.1445,4.4004Z"></path></g><g><circle class="k" cx="343.625" cy="95.1642" r="6.3557" transform="translate(13.5838 230.0983) rotate(-37.7164)"></circle><path class="l" d="M343.6221,102.145c-1.8389,0-3.5723-.7085-4.8877-1.999-1.3301-1.3062-2.0723-3.0527-2.0898-4.917-.0352-3.8491,3.0674-7.0093,6.916-7.0454,3.8809-.0078,7.0098,3.0679,7.0449,6.9155,.0352,3.8491-3.0674,7.0093-6.916,7.0454l-.0059-.625,.0059,.625c-.0225,0-.0449,.0005-.0674,.0005Zm.0039-12.7119c-.0186,0-.0361,.0005-.0537,.0005-3.1602,.0293-5.707,2.624-5.6777,5.7837,.0137,1.5308,.623,2.9644,1.7158,4.0366,1.0928,1.0728,2.5049,1.6621,4.0674,1.6406,3.1602-.0293,5.707-2.624,5.6777-5.7837-.0293-3.1416-2.5947-5.6777-5.7295-5.6777Z"></path></g></g><g><rect class="d" x="440.7365" y="83.6468" width="1.2506" height="28.4818" transform="translate(60.0548 340.7606) rotate(-45)"></rect><rect class="d" x="427.1143" y="97.2627" width="28.494" height="1.2504" transform="translate(67.4668 352.0232) rotate(-46.7089)"></rect></g><g><rect class="d" x="332.4863" y="74.689" width="59.2588" height="1.25"></rect><rect class="d" x="397.0127" y="74.689" width="59.2588" height="1.25"></rect></g><g><rect class="p" x="312.2715" y="342.8704" width="155.7298" height="44.6517"></rect><path d="M467.0013,343.8704v42.6517h-153.7299v-42.6517h153.7299m1-1h-155.7299v44.6517h155.7299v-44.6517h0Z"></path></g><g><g><path class="k" d="M476.1264,124.6282h-.4866v-54.4013c0-13.7592-11.1538-24.9129-24.9129-24.9129h-121.0478c-14.1931,0-25.8058,11.6125-25.8058,25.8056v19.9338c-.8062,0-1.4596,.6536-1.4596,1.4598v10.2185c0,.8063,.6534,1.4598,1.4596,1.4598v12.1647c-.8062,0-1.4596,.6535-1.4596,1.4599v21.8966c0,.8063,.6534,1.4598,1.4596,1.4598v7.2988c-.8062,0-1.4596,.6535-1.4596,1.4599v21.8966c0,.8063,.6534,1.4598,1.4596,1.4598v195.5127c0,14.2372,11.6489,25.886,25.8862,25.886h120.9675c13.7022,0,24.9129-11.2108,24.9129-24.9129V165.0153h.4866c.8063,0,1.46-.6536,1.46-1.4598v-37.4676c0-.8062-.6537-1.4597-1.46-1.4597Zm-9.7318,243.0498c0,8.4964-6.2742,15.8164-14.7708,15.8164h-121.161c-8.4963,0-15.8843-7.32-15.8843-15.8164V69.2677c0-8.4964,7.388-14.7085,15.8843-14.7085h14.0074c2.9611,0,4.056-.3379,4.2348,3.4151,.0931,1.9501,.8087,3.4656,1.9545,4.7199,1.1458,1.2306,2.7213,2.2421,4.5336,2.8094,1.2288,.3846,2.5975,.7337,3.9025,.7337h64.0256c1.3051,0,2.6738-.4286,3.9026-.8132,1.8123-.5673,3.3878-1.5142,4.5334-2.7225,1.1458-1.2318,1.8615-2.6826,1.9547-4.6326,.1791-3.7531,1.2736-3.5098,4.2348-3.5098h13.877c8.4966,0,14.7708,6.2121,14.7708,14.7085V367.678Z"></path><path class="l" d="M450.7266,395.3105h-120.9668c-14.6182,0-26.5117-11.8926-26.5117-26.5107V173.8164c-.8447-.2661-1.459-1.0571-1.459-1.9888v-21.8965c0-.9321,.6143-1.7231,1.459-1.9893v-6.2402c-.8447-.2661-1.459-1.0571-1.459-1.9893v-21.8965c0-.9321,.6143-1.7231,1.459-1.9893v-11.106c-.8447-.2661-1.459-1.0571-1.459-1.9893v-10.2183c0-.9321,.6143-1.7231,1.459-1.9893v-19.4043c0-14.5737,11.8564-26.4307,26.4307-26.4307h121.0479c14.082,0,25.5381,11.4565,25.5381,25.5381v53.7803c1.085,.0718,1.9463,.9775,1.9463,2.0806v37.4678c0,1.103-.8613,2.0083-1.9463,2.0801v204.1377c0,14.0811-11.4561,25.5371-25.5381,25.5371ZM329.6787,45.939c-13.8848,0-25.1807,11.2959-25.1807,25.1807v19.9336c0,.3452-.2803,.625-.625,.625-.46,0-.834,.3745-.834,.835v10.2183c0,.4604,.374,.835,.834,.835,.3447,0,.625,.2798,.625,.625v12.1646c0,.3452-.2803,.625-.625,.625-.46,0-.834,.3745-.834,.835v21.8965c0,.4604,.374,.835,.834,.835,.3447,0,.625,.2798,.625,.625v7.2988c0,.3452-.2803,.625-.625,.625-.46,0-.834,.3745-.834,.835v21.8965c0,.46,.374,.8345,.834,.8345,.3447,0,.625,.2798,.625,.625v195.5127c0,13.9287,11.332,25.2607,25.2617,25.2607h120.9668c13.3926,0,24.2881-10.8955,24.2881-24.2871V165.0151c0-.3452,.2803-.625,.625-.625h.4863c.46,0,.835-.3745,.835-.8345v-37.4678c0-.4604-.375-.835-.835-.835h-.4863c-.3447,0-.625-.2798-.625-.625v-54.4009c0-13.3926-10.8955-24.2881-24.2881-24.2881h-121.0479Zm121.9453,338.1802h-121.1611c-8.7949,0-16.5098-7.6826-16.5098-16.4414V69.2676c0-8.5981,7.252-15.3335,16.5098-15.3335l14.6777-.0044c2.7002-.021,4.0039,.1343,4.1885,4.0146,.0801,1.6802,.666,3.0962,1.792,4.3286,1.1025,1.1831,2.6162,2.1201,4.2588,2.6338,1.0488,.3286,2.4189,.7056,3.7158,.7056h64.0254c1.208,0,2.5371-.4155,3.709-.7822,1.7207-.5386,3.1963-1.4229,4.2744-2.5586,1.1357-1.2217,1.7041-2.5684,1.7832-4.2324,.1895-3.9521,1.5449-4.1289,4.3535-4.1064l14.3828,.0015c8.9209,0,15.3955,6.4487,15.3955,15.3335V367.6777c0,9.2197-6.7627,16.4414-15.3955,16.4414ZM330.4629,55.1841c-8.5566,0-15.2598,6.186-15.2598,14.0835V367.6777c0,8.0928,7.1309,15.1914,15.2598,15.1914h121.1611c7.9316,0,14.1455-6.6729,14.1455-15.1914V69.2676c0-8.1606-5.9492-14.0835-14.1455-14.0835l-14.3896-.002c-2.5576-.0103-2.958-.0146-3.0986,2.9165-.0928,1.9487-.7861,3.5938-2.1201,5.0288-1.2285,1.2944-2.8887,2.2935-4.8057,2.8936-1.2646,.3955-2.6904,.8413-4.0889,.8413h-64.0254c-1.4668,0-2.9561-.4077-4.0889-.7622-1.8467-.5776-3.5527-1.6357-4.8047-2.9795-1.335-1.4614-2.0273-3.1333-2.1211-5.1167-.1367-2.8516-.5049-2.8467-2.9287-2.8242l-.6826,.0044h-14.0068Z"></path></g><g><g><circle class="f" cx="408.4963" cy="56.5179" r="3.1561"></circle><path class="l" d="M408.4961,60.2988c-2.085,0-3.7812-1.6958-3.7812-3.7808s1.6963-3.7812,3.7812-3.7812,3.7812,1.6963,3.7812,3.7812-1.6963,3.7808-3.7812,3.7808Zm0-6.312c-1.3955,0-2.5312,1.1357-2.5312,2.5312s1.1357,2.5308,2.5312,2.5308,2.5312-1.1353,2.5312-2.5308-1.1357-2.5312-2.5312-2.5312Z"></path></g><path class="l" d="M400.2715,57.4355h-31.9238c-.3447,0-.625-.2798-.625-.625s.2803-.625,.625-.625h31.9238c.3447,0,.625,.2798,.625,.625s-.2803,.625-.625,.625Z"></path></g></g><g><path class="d" d="M432.5723,367.9531c-.3145,0-.6143-.1025-.8672-.2969-1.8955-1.4668-5.207-4.1836-6.0938-5.9053-1.2168-2.3623-.4805-5.4023,1.6416-6.7764,1.6865-1.0898,3.916-.8027,5.3193,.6045,1.4004-1.4072,3.6328-1.6934,5.3184-.6055,0,0,0,.001,.001,.001,2.1221,1.374,2.8584,4.4141,1.6416,6.7764-.8877,1.7246-4.1992,4.4395-6.0947,5.9043-.2471,.1924-.5547,.2979-.8662,.2979Zm-3.0391-12.4131c-.5566,0-1.1104,.167-1.6016,.4844-1.5977,1.0342-2.1406,3.3467-1.209,5.1543,.5586,1.084,2.707,3.1357,5.7471,5.4883,.0508,.0391,.1104,.0742,.2041,0,1.1396-.8809,4.9189-3.8789,5.748-5.4883,.9316-1.8076,.3887-4.1201-1.209-5.1543-1.3604-.8799-3.1562-.4766-4.1328,.8838-.2344,.3281-.7812,.3281-1.0156,0-.624-.8691-1.5469-1.3682-2.5312-1.3682Z"></path><g><path class="d" d="M452.8145,367.7705c-.0381,0-.0771-.0039-.1162-.0107-.2607-.0498-.4619-.2588-.502-.5215l-1.0586-7.0361c-.0381-.2568,.0859-.5107,.3115-.6377l7.5645-4.2529c.2471-.1377,.5537-.0947,.751,.1055,.1982,.2002,.2373,.5078,.0967,.752l-6.5049,11.2881c-.1133,.1963-.3213,.3135-.542,.3135Zm-.376-7.3281l.7275,4.8408,4.4756-7.7666-5.2031,2.9258Z"></path><path class="d" d="M451.6846,360.6172c-.1465,0-.293-.0518-.4092-.1523l-5.3828-4.6523c-.2002-.1738-.2695-.4551-.1719-.7021s.3369-.4189,.6064-.3945l13.0186,.5293c.2812,.0107,.5205,.209,.584,.4834s-.0645,.5566-.3125,.6904l-7.6357,4.123c-.0928,.0508-.1953,.0752-.2969,.0752Zm-3.6201-4.5801l3.7021,3.2002,5.2529-2.8359-8.9551-.3643Z"></path></g></g><path class="d" d="M407.3535,369.2988h-77.7881c-4.7734,0-8.6562-3.8828-8.6562-8.6553s3.8828-8.6562,8.6562-8.6562h77.7881c4.7734,0,8.6562,3.8828,8.6562,8.6562s-3.8828,8.6553-8.6562,8.6553Zm-77.7881-16.0615c-4.084,0-7.4062,3.3223-7.4062,7.4062s3.3223,7.4053,7.4062,7.4053h77.7881c4.084,0,7.4062-3.3223,7.4062-7.4053s-3.3223-7.4062-7.4062-7.4062h-77.7881Z"></path><g><path class="e" d="M553.0987,50.1733h125.6475c9.6006,0,17.3834,7.7829,17.3834,17.3834V368.4854c0,9.6006-7.7828,17.3835-17.3834,17.3835h-124.7652c-9.5807,0-17.3553-7.7518-17.3833-17.3324l-.8821-300.9287c-.0284-9.6205,7.7627-17.4344,17.3831-17.4344Z"></path><path d="M678.7461,51.1733c9.0338,0,16.3834,7.3495,16.3834,16.3834V368.4854c0,9.0339-7.3496,16.3835-16.3834,16.3835h-124.7651c-9.0076,0-16.3571-7.328-16.3833-16.3354l-.8821-300.9287c-.0129-4.3853,1.6852-8.5105,4.7814-11.616,3.0963-3.1054,7.2166-4.8155,11.6017-4.8155h125.6475m0-1h-125.6475c-9.6204,0-17.4114,7.8139-17.3831,17.4345l.8821,300.9286c.028,9.5807,7.8026,17.3325,17.3833,17.3325h124.7651c9.6006,0,17.3834-7.7829,17.3834-17.3835V67.5567c0-9.6005-7.7828-17.3834-17.3834-17.3834h0Z"></path></g><g><g><circle class="g" cx="570.3484" cy="98.6617" r="13.9789" transform="translate(81.5107 408.6119) rotate(-42.1912)"></circle><path d="M570.3523,84.6828v1h.0001c7.0883,0,12.9084,5.7682,12.9742,12.8583,.0322,3.4666-1.2875,6.7383-3.7159,9.2124-2.4285,2.4741-5.675,3.8543-9.1418,3.8865l-.1232,.0006c-7.0889,0-12.9097-5.7682-12.9756-12.8583-.0665-7.1563,5.7015-13.0324,12.8578-13.0989l.1233-.0006,.0011-1m-.0012,0c-.0437,0-.0887,.0002-.1326,.0006-7.72,.0717-13.92,6.3882-13.8484,14.1082,.0714,7.6762,6.3154,13.849,13.9756,13.849,.0437,0,.0887-.0002,.1326-.0006,7.72-.0717,13.9202-6.3882,13.8484-14.1081-.0713-7.6762-6.3153-13.8497-13.9756-13.849h0Z"></path></g><g><path class="k" d="M581.5694,106.915c-.8534-2.9095-4.3034-5.0676-11.6209-4.9996-7.2814,.0677-10.1568,2.2629-10.821,5.1649,2.5786,3.4123,6.6834,5.6022,11.2887,5.5594,4.5863-.0426,8.636-2.2893,11.1532-5.7247Z"></path><path class="l" d="M570.2881,113.2651c-4.5557,0-8.9062-2.1641-11.6592-5.8076-.1113-.1475-.1514-.3364-.1104-.5161,.8438-3.6875,4.6875-5.5884,11.4238-5.6509,8.7578-.0923,11.4844,2.918,12.2266,5.4487,.0547,.1865,.0195,.3882-.0957,.5454-2.7529,3.7573-7,5.937-11.6514,5.98-.0449,.0005-.0898,.0005-.1338,.0005Zm-10.4785-6.3242c2.5254,3.1885,6.4121,5.0742,10.4775,5.0742,.041,0,.082,0,.123-.0005,4.1465-.0386,7.9424-1.9341,10.4629-5.2134-1.0215-2.7563-4.7607-4.2622-10.5986-4.2622-.1064,0-.2129,.0005-.3203,.0015-5.8936,.0547-9.3037,1.5347-10.1445,4.4004Z"></path></g><g><circle class="k" cx="570.3484" cy="95.1642" r="6.3557" transform="translate(60.958 368.797) rotate(-37.7164)"></circle><path class="l" d="M570.3457,102.145c-1.8389,0-3.5723-.7085-4.8877-1.999-1.3301-1.3062-2.0723-3.0527-2.0898-4.917s.6924-3.624,1.998-4.9546c1.3066-1.3311,3.0527-2.0732,4.917-2.0908,.0215,0,.0439-.0005,.0654-.0005,3.8193,0,6.9443,3.0889,6.9805,6.916,.0352,3.8491-3.0674,7.0093-6.916,7.0454-.0225,0-.0449,.0005-.0674,.0005Zm.0029-12.7119c-.0186,0-.0361,.0005-.0537,.0005-1.5303,.0142-2.9639,.6235-4.0361,1.7163-1.0723,1.0923-1.6553,2.5366-1.6406,4.0674,.0137,1.5308,.623,2.9644,1.7158,4.0366,1.0918,1.0728,2.5195,1.6621,4.0674,1.6406,3.1602-.0293,5.707-2.624,5.6777-5.7837-.0293-3.1416-2.5957-5.6777-5.7305-5.6777Z"></path></g></g><g><rect class="d" x="667.4592" y="83.6468" width="1.2506" height="28.4818" transform="translate(126.4604 501.0777) rotate(-45)"></rect><rect class="d" x="653.838" y="97.2627" width="28.494" height="1.2504" transform="translate(138.7247 517.0506) rotate(-46.7089)"></rect></g><g><rect class="d" x="559.21" y="74.689" width="59.2588" height="1.25"></rect><rect class="d" x="623.7363" y="74.689" width="59.2588" height="1.25"></rect></g><g><rect class="p" x="538.9949" y="342.8704" width="155.7298" height="44.6517"></rect><path d="M693.7247,343.8704v42.6517h-153.7299v-42.6517h153.7299m1-1h-155.7299v44.6517h155.7299v-44.6517h0Z"></path></g><g><g><path class="k" d="M702.8498,124.6282h-.4866v-54.4013c0-13.7592-11.1538-24.9129-24.9129-24.9129h-121.0478c-14.1931,0-25.8058,11.6125-25.8058,25.8056v19.9338c-.8062,0-1.4596,.6536-1.4596,1.4598v10.2185c0,.8063,.6534,1.4598,1.4596,1.4598v12.1647c-.8062,0-1.4596,.6535-1.4596,1.4599v21.8966c0,.8063,.6534,1.4598,1.4596,1.4598v7.2988c-.8062,0-1.4596,.6535-1.4596,1.4599v21.8966c0,.8063,.6534,1.4598,1.4596,1.4598v195.5127c0,14.2372,11.6489,25.886,25.8862,25.886h120.9675c13.7022,0,24.9129-11.2108,24.9129-24.9129V165.0153h.4866c.8063,0,1.46-.6536,1.46-1.4598v-37.4676c0-.8062-.6537-1.4597-1.46-1.4597Zm-9.7318,243.0498c0,8.4964-6.2742,15.8164-14.7708,15.8164h-121.161c-8.4963,0-15.8843-7.32-15.8843-15.8164V69.2677c0-8.4964,7.388-14.7085,15.8843-14.7085h14.0074c2.9611,0,4.056-.3379,4.2348,3.4151,.0931,1.9501,.8087,3.4656,1.9545,4.7199,1.1458,1.2306,2.7213,2.2421,4.5336,2.8094,1.2288,.3846,2.5975,.7337,3.9025,.7337h64.0256c1.3051,0,2.6738-.4286,3.9026-.8132,1.8123-.5673,3.3878-1.5142,4.5334-2.7225,1.1458-1.2318,1.8615-2.6826,1.9547-4.6326,.1791-3.7531,1.2736-3.5098,4.2348-3.5098h13.877c8.4966,0,14.7708,6.2121,14.7708,14.7085V367.678Z"></path><path class="l" d="M677.4502,395.3105h-120.9678c-14.6182,0-26.5107-11.8926-26.5107-26.5107V173.8164c-.8457-.2661-1.46-1.0571-1.46-1.9888v-21.8965c0-.9321,.6143-1.7231,1.46-1.9893v-6.2402c-.8457-.2661-1.46-1.0571-1.46-1.9893v-21.8965c0-.9321,.6143-1.7231,1.46-1.9893v-11.106c-.8457-.2661-1.46-1.0571-1.46-1.9893v-10.2183c0-.9321,.6143-1.7231,1.46-1.9893v-19.4043c0-14.5737,11.8564-26.4307,26.4307-26.4307h121.0479c14.082,0,25.5381,11.4565,25.5381,25.5381v53.7803c1.085,.0718,1.9463,.9775,1.9463,2.0806v37.4678c0,1.103-.8613,2.0083-1.9463,2.0801v204.1377c0,14.0811-11.4561,25.5371-25.5381,25.5371ZM556.4023,45.939c-13.8848,0-25.1807,11.2959-25.1807,25.1807v19.9336c0,.3452-.2803,.625-.625,.625-.46,0-.835,.3745-.835,.835v10.2183c0,.4604,.375,.835,.835,.835,.3447,0,.625,.2798,.625,.625v12.1646c0,.3452-.2803,.625-.625,.625-.46,0-.835,.3745-.835,.835v21.8965c0,.4604,.375,.835,.835,.835,.3447,0,.625,.2798,.625,.625v7.2988c0,.3452-.2803,.625-.625,.625-.46,0-.835,.3745-.835,.835v21.8965c0,.46,.375,.8345,.835,.8345,.3447,0,.625,.2798,.625,.625v195.5127c0,13.9287,11.332,25.2607,25.2607,25.2607h120.9678c13.3926,0,24.2881-10.8955,24.2881-24.2871V165.0151c0-.3452,.2803-.625,.625-.625h.4863c.46,0,.835-.3745,.835-.8345v-37.4678c0-.4604-.375-.835-.835-.835h-.4863c-.3447,0-.625-.2798-.625-.625v-54.4009c0-13.3926-10.8955-24.2881-24.2881-24.2881h-121.0479Zm121.9443,338.1802h-121.1602c-8.7949,0-16.5098-7.6826-16.5098-16.4414V69.2676c0-8.5981,7.252-15.3335,16.5098-15.3335l14.6777-.0044c2.7119-.021,4.0039,.1343,4.1885,4.0146,.0801,1.6802,.666,3.0962,1.792,4.3286,1.1006,1.1826,2.6143,2.1196,4.2578,2.6338,1.0498,.3286,2.4199,.7056,3.7168,.7056h64.0254c1.208,0,2.5381-.416,3.7119-.7832,1.7178-.5376,3.1934-1.4219,4.2705-2.5576,1.1367-1.2217,1.7051-2.5679,1.7842-4.2324,.1875-3.9521,1.5303-4.1289,4.3525-4.1064l14.3828,.0015c8.9209,0,15.3965,6.4487,15.3965,15.3335V367.6777c0,9.2197-6.7627,16.4414-15.3965,16.4414ZM557.1865,55.1841c-8.5566,0-15.2598,6.186-15.2598,14.0835V367.6777c0,8.0928,7.1309,15.1914,15.2598,15.1914h121.1602c7.9326,0,14.1465-6.6729,14.1465-15.1914V69.2676c0-8.1606-5.9492-14.0835-14.1465-14.0835l-14.3896-.002c-2.5537-.0039-2.958-.0142-3.0977,2.9165-.0928,1.9492-.7861,3.5942-2.1221,5.0288-1.2266,1.2944-2.8867,2.2935-4.8037,2.8936-1.2627,.395-2.6904,.8413-4.0889,.8413h-64.0254c-1.4658,0-2.9561-.4072-4.0898-.7622-1.8477-.5781-3.5537-1.6367-4.8037-2.98-1.335-1.4609-2.0273-3.1328-2.1211-5.1162-.1367-2.8516-.5059-2.8467-2.9287-2.8242l-.6826,.0044h-14.0068Z"></path></g><g><g><circle class="f" cx="635.2198" cy="56.5179" r="3.1561"></circle><path class="l" d="M635.2197,60.2988c-2.085,0-3.7812-1.6958-3.7812-3.7808s1.6963-3.7812,3.7812-3.7812,3.7812,1.6963,3.7812,3.7812-1.6963,3.7808-3.7812,3.7808Zm0-6.312c-1.3955,0-2.5312,1.1357-2.5312,2.5312s1.1357,2.5308,2.5312,2.5308,2.5312-1.1353,2.5312-2.5308-1.1357-2.5312-2.5312-2.5312Z"></path></g><path class="l" d="M626.9941,57.4355h-31.9229c-.3447,0-.625-.2798-.625-.625s.2803-.625,.625-.625h31.9229c.3447,0,.625,.2798,.625,.625s-.2803,.625-.625,.625Z"></path></g></g><g><path class="d" d="M659.2959,367.9531c-.3145,0-.6143-.1025-.8672-.2969-1.8955-1.4668-5.207-4.1836-6.0938-5.9053-1.2168-2.3623-.4805-5.4023,1.6416-6.7764,1.6836-1.0879,3.916-.8027,5.3193,.6045,1.4004-1.4072,3.6348-1.6934,5.3174-.6055l.001,.001c2.123,1.373,2.8604,4.4131,1.6426,6.7764-.8896,1.7256-4.2002,4.4404-6.0947,5.9043-.2471,.1924-.5547,.2979-.8662,.2979Zm-3.0391-12.4131c-.5576,0-1.1113,.167-1.6016,.4844-1.5977,1.0342-2.1406,3.3467-1.209,5.1543,.5586,1.084,2.707,3.1357,5.7471,5.4883,.0508,.0391,.1104,.0742,.2041,0,1.1387-.8809,4.918-3.877,5.748-5.4883,.9316-1.8076,.3887-4.1201-1.21-5.1543h0c-1.3574-.8799-3.1553-.4766-4.1318,.8838-.2344,.3281-.7812,.3281-1.0156,0-.624-.8691-1.5469-1.3682-2.5312-1.3682Z"></path><g><path class="d" d="M679.5381,367.7705c-.0381,0-.0771-.0039-.1162-.0107-.2607-.0498-.4619-.2588-.502-.5215l-1.0586-7.0361c-.0381-.2568,.0859-.5107,.3115-.6377l7.5635-4.2529c.2461-.1377,.5518-.0947,.751,.1055,.1982,.2002,.2373,.5078,.0977,.752l-6.5049,11.2881c-.1133,.1963-.3213,.3135-.542,.3135Zm-.376-7.3281l.7275,4.8408,4.4746-7.7656-5.2021,2.9248Z"></path><path class="d" d="M678.4082,360.6172c-.1465,0-.292-.0518-.4082-.1523l-5.3838-4.6523c-.2012-.1738-.2705-.4551-.1729-.7021s.3301-.4189,.6064-.3945l13.0186,.5293c.2812,.0107,.5205,.209,.584,.4834,.0635,.2734-.0645,.5566-.3125,.6904l-7.6348,4.123c-.0928,.0508-.1953,.0752-.2969,.0752Zm-3.6211-4.5801l3.7031,3.2002,5.252-2.8359-8.9551-.3643Z"></path></g></g><path class="d" d="M634.0771,369.2988h-77.7891c-4.7725,0-8.6553-3.8828-8.6553-8.6553s3.8828-8.6562,8.6553-8.6562h77.7891c4.7725,0,8.6553,3.8828,8.6553,8.6562s-3.8828,8.6553-8.6553,8.6553Zm-77.7891-16.0615c-4.083,0-7.4053,3.3223-7.4053,7.4062s3.3223,7.4053,7.4053,7.4053h77.7891c4.083,0,7.4053-3.3223,7.4053-7.4053s-3.3223-7.4062-7.4053-7.4062h-77.7891Z"></path><g><rect class="d" x="138.0982" y="137.4596" width="54.8532" height="178.2204"></rect><path d="M193.4512,316.1797h-55.8525V136.9595h55.8525v179.2202Zm-54.8525-1h53.8525V137.9595h-53.8525v177.2202Z"></path></g><g><polyline class="o" points="153.13 315.2752 153.13 278.1196 177.9196 278.1196 177.9196 315.2752"></polyline><path class="l" d="M177.9199,315.9004c-.3447,0-.625-.2803-.625-.625v-36.5312h-23.54v36.5312c0,.3447-.2803,.625-.625,.625s-.625-.2803-.625-.625v-37.1562c0-.3447,.2803-.625,.625-.625h24.79c.3447,0,.625,.2803,.625,.625v37.1562c0,.3447-.2803,.625-.625,.625Z"></path></g><g><rect x="147.0283" y="149.9448" width="5.9619" height="1"></rect><rect x="162.9248" y="149.9448" width="5.9609" height="1"></rect><rect x="147.0283" y="160.3096" width="5.9619" height="1"></rect><rect x="162.9248" y="160.3096" width="5.9609" height="1"></rect><rect x="147.0283" y="170.6743" width="5.9619" height="1"></rect><rect x="162.9248" y="170.6743" width="5.9609" height="1"></rect><rect x="147.0283" y="181.0391" width="5.9619" height="1"></rect><rect x="162.9248" y="181.0391" width="5.9609" height="1"></rect><rect x="147.0283" y="191.4038" width="5.9619" height="1"></rect><rect x="162.9248" y="191.4038" width="5.9609" height="1"></rect><rect x="147.0283" y="201.7686" width="5.9619" height="1"></rect><rect x="162.9248" y="201.7686" width="5.9609" height="1"></rect><rect x="147.0283" y="212.1333" width="5.9619" height="1"></rect><rect x="162.9248" y="212.1333" width="5.9609" height="1"></rect></g><g><rect x="178.8438" y="149.9448" width="5.9609" height="1"></rect><rect x="178.8438" y="160.3096" width="5.9609" height="1"></rect><rect x="178.8438" y="170.6743" width="5.9609" height="1"></rect><rect x="178.8438" y="181.0391" width="5.9609" height="1"></rect><rect x="178.8438" y="191.4038" width="5.9609" height="1"></rect><rect x="178.8438" y="201.7686" width="5.9609" height="1"></rect><rect x="178.8438" y="212.1333" width="5.9609" height="1"></rect></g><g><rect x="147.0283" y="221.6875" width="5.9619" height="1"></rect><rect x="162.9248" y="221.6875" width="5.9609" height="1"></rect><rect x="147.0283" y="232.0518" width="5.9619" height="1"></rect><rect x="162.9248" y="232.0518" width="5.9609" height="1"></rect><rect x="147.0283" y="242.417" width="5.9619" height="1"></rect><rect x="162.9248" y="242.417" width="5.9609" height="1"></rect><rect x="147.0283" y="252.7812" width="5.9619" height="1"></rect><rect x="162.9248" y="252.7812" width="5.9609" height="1"></rect><rect x="147.0283" y="263.1465" width="5.9619" height="1"></rect><g><line class="d" x1="165.4548" y1="278.1828" x2="165.4773" y2="315.5391"></line><rect x="164.9663" y="278.1826" width="1" height="37.3565"></rect></g><rect x="162.9248" y="263.1465" width="5.9609" height="1"></rect></g><g><rect x="178.8438" y="221.6875" width="5.9609" height="1"></rect><rect x="178.8438" y="232.0518" width="5.9609" height="1"></rect><rect x="178.8438" y="242.417" width="5.9609" height="1"></rect><rect x="178.8438" y="252.7812" width="5.9609" height="1"></rect><rect x="178.8438" y="263.1465" width="5.9609" height="1"></rect></g><g><g><g><path class="j" d="M376.6191,166.4949h.0451c-.2898,.4314-.578,.9357-.7067,1.441-1.2984,5.0949,1.7486,5.8363,2.7408,7.1059,2.2432,2.8706,1.1415,4.9558-1.6433,6.2634-.6209,.2916-1.4466,.2096-2.2546,.3278-.3989,.0583-1.1633,.0164-1.4881-.0497-5.6779-1.1548-3.3949-6.6851-2.7506-10.2808,.347-1.9369,1.5268-3.0711,3.5323-3.9931,.5181-.2382,1.1209-.4453,1.7285-.6159l.7966-.1987Z"></path><path class="l" d="M374.3018,182.2856c-.4072,0-.8516-.0361-1.1143-.0898-1.6279-.3311-2.8027-1.0415-3.4932-2.1113-1.2939-2.0049-.6602-4.7827-.1016-7.2339,.1328-.5806,.2607-1.1396,.3535-1.6582,.3594-2.0073,1.5576-3.3799,3.8867-4.4507,.5127-.2358,1.126-.4546,1.8203-.6499l.8154-.2031c.0488-.0122,.0996-.0186,.1504-.0186h.0449c.2314,0,.4434,.1274,.5518,.3311,.1084,.2041,.0957,.4512-.0332,.6426-.3271,.4868-.5303,.8945-.6201,1.2466-.916,3.5972,.4492,4.6934,1.6543,5.6606,.3672,.2949,.7139,.5728,.9736,.9062,1.1201,1.4326,1.5371,2.7886,1.2412,4.0288-.3066,1.2881-1.3545,2.3599-3.1113,3.1851-.5166,.2422-1.0947,.2773-1.6543,.3115-.2539,.0156-.5156,.0308-.7744,.0688-.1641,.0239-.3721,.0342-.5898,.0342Zm1.1494-14.8281c-.4053,.1309-.7754,.2725-1.0967,.4199-1.9697,.9058-2.8906,1.9302-3.1777,3.5352-.0957,.5366-.2275,1.1152-.3652,1.7158-.5039,2.2104-1.0752,4.7158-.0674,6.2783,.5078,.7876,1.3887,1.2993,2.6934,1.5645,.2744,.0562,.9688,.0884,1.2725,.0435,.2949-.0435,.5908-.062,.8809-.0796,.4619-.0283,.8984-.0547,1.1982-.1958,.96-.4502,2.1592-1.2227,2.4268-2.3433,.2041-.8521-.1367-1.8511-1.0098-2.9692-.1709-.2188-.4492-.4424-.7715-.7007-1.2734-1.0225-3.1982-2.5674-2.083-6.9443,.0273-.106,.0605-.2139,.0996-.3242Z"></path></g><g><rect class="d" x="371.4539" y="185.4107" width="6.405" height="26.9433"></rect><path d="M378.3594,212.854h-7.4053v-27.9434h7.4053v27.9434Zm-6.4053-1h5.4053v-25.9434h-5.4053v25.9434Z"></path></g><g><path class="j" d="M390.3441,166.4949h.0451c-.2898,.4314-.578,.9357-.7067,1.441-1.2984,5.0949,1.7486,5.8363,2.7408,7.1059,2.2432,2.8706,1.1415,4.9558-1.6433,6.2634-.6209,.2916-1.4466,.2096-2.2546,.3278-.3989,.0583-1.1633,.0164-1.4881-.0497-5.6779-1.1548-3.3949-6.6851-2.7506-10.2808,.347-1.9369,1.5268-3.0711,3.5323-3.9931,.5181-.2382,1.1209-.4453,1.7285-.6159l.7966-.1987Z"></path><path class="l" d="M388.0264,182.2856c-.4062,0-.8506-.0361-1.1133-.0898-1.6289-.3311-2.8037-1.0415-3.4941-2.1113-1.293-2.0044-.6592-4.7822-.1006-7.2329,.1328-.5811,.2607-1.1406,.3535-1.6592,.3594-2.0078,1.5576-3.3804,3.8867-4.4507,.5127-.2358,1.125-.4546,1.8203-.6499l.8145-.2031c.0488-.0122,.0996-.0186,.1504-.0186h.0459c.2314,0,.4434,.1274,.5518,.3311,.1084,.2041,.0957,.4512-.0332,.6426-.3271,.4868-.5303,.8945-.6201,1.2466-.917,3.5977,.4482,4.6938,1.6533,5.6606,.3672,.2949,.7139,.5728,.9736,.9062,1.1201,1.4326,1.5381,2.7886,1.2412,4.0288-.3066,1.2881-1.3535,2.3599-3.1104,3.1851-.5166,.2422-1.0947,.2773-1.6543,.3115-.2549,.0156-.5166,.0308-.7754,.0688-.1631,.0239-.3711,.0342-.5898,.0342Zm1.1504-14.8286c-.4062,.1313-.7754,.2725-1.0957,.4204-1.9707,.9053-2.8916,1.9297-3.1787,3.5352-.0967,.5371-.2285,1.1157-.3652,1.7168-.5039,2.2104-1.0752,4.7153-.0674,6.2773,.5078,.7876,1.3877,1.2993,2.6924,1.5645,.2744,.0562,.9678,.0884,1.2725,.0435,.2949-.0435,.5918-.062,.8809-.0796,.4629-.0283,.8994-.0547,1.1992-.1958,.959-.4502,2.1592-1.2227,2.4258-2.3433,.2041-.8521-.1367-1.8511-1.0098-2.9692-.1709-.2188-.4492-.4424-.7715-.7007-1.2734-1.0225-3.1982-2.5674-2.082-6.9443,.0273-.106,.0605-.2144,.0996-.3247Z"></path></g><g><rect class="d" x="385.1789" y="185.4107" width="6.405" height="26.9433"></rect><path d="M392.084,212.854h-7.4053v-27.9434h7.4053v27.9434Zm-6.4053-1h5.4053v-25.9434h-5.4053v25.9434Z"></path></g><g><path class="j" d="M404.0691,166.4949h.0451c-.2898,.4314-.578,.9357-.7067,1.441-1.2984,5.0949,1.7486,5.8363,2.7408,7.1059,2.2432,2.8706,1.1415,4.9558-1.6433,6.2634-.6209,.2916-1.4466,.2096-2.2546,.3278-.3989,.0583-1.1633,.0164-1.4881-.0497-5.6779-1.1548-3.3949-6.6851-2.7506-10.2808,.347-1.9369,1.5268-3.0711,3.5323-3.9931,.5181-.2382,1.1209-.4453,1.7285-.6159l.7966-.1987Z"></path><path class="l" d="M401.751,182.2856c-.4062,0-.8506-.0361-1.1133-.0898-1.6279-.3311-2.8037-1.0415-3.4941-2.1113-1.293-2.0049-.6592-4.7822-.1006-7.2329,.1328-.5811,.2607-1.1406,.3535-1.6592,.3594-2.0078,1.5576-3.3804,3.8867-4.4507,.5127-.2358,1.126-.4546,1.8203-.6499l.8154-.2031c.0488-.0122,.0996-.0186,.1504-.0186h.0449c.2314,0,.4434,.1274,.5518,.3311,.1084,.2041,.0957,.4512-.0332,.6426-.3271,.4868-.5303,.8945-.6201,1.2466-.916,3.5972,.4492,4.6934,1.6543,5.6606,.3672,.2949,.7139,.5728,.9736,.9062,1.1201,1.4326,1.5371,2.7886,1.2412,4.0288-.3066,1.2881-1.3545,2.3599-3.1113,3.1851-.5166,.2422-1.0947,.2773-1.6543,.3115-.2549,.0156-.5166,.0308-.7754,.0688-.1641,.0239-.3711,.0342-.5898,.0342Zm1.1504-14.8281c-.4053,.1309-.7754,.2725-1.0967,.4199-1.9697,.9053-2.8906,1.9297-3.1777,3.5352-.0967,.5371-.2275,1.1157-.3652,1.7168-.5039,2.21-1.0752,4.7153-.0674,6.2773,.5078,.7876,1.3887,1.2993,2.6934,1.5645,.2744,.0557,.9668,.0869,1.2715,.0435,.2949-.0435,.5918-.062,.8809-.0796,.4629-.0283,.8994-.0547,1.1992-.1958,.96-.4502,2.1592-1.2227,2.4268-2.3433,.2041-.8521-.1367-1.8511-1.0098-2.9692-.1709-.2188-.4492-.4424-.7715-.7007-1.2734-1.0225-3.1982-2.5674-2.083-6.9443,.0273-.106,.0605-.2139,.0996-.3242Z"></path></g><g><rect class="d" x="398.9039" y="185.4107" width="6.405" height="26.9433"></rect><path d="M405.8086,212.854h-7.4043v-27.9434h7.4043v27.9434Zm-6.4043-1h5.4043v-25.9434h-5.4043v25.9434Z"></path></g></g><g><rect class="k" x="354.1432" y="204.119" width="68.625" height="47.58" rx="12.5213" ry="12.5213"></rect><path d="M410.2471,252.1992h-43.583c-7.1797,0-13.0205-5.8418-13.0205-13.0215v-22.5376c0-7.1797,5.8408-13.021,13.0205-13.021h43.583c7.1797,0,13.0215,5.8413,13.0215,13.021v22.5376c0,7.1797-5.8418,13.0215-13.0215,13.0215Zm-43.583-47.5801c-6.6279,0-12.0205,5.3926-12.0205,12.021v22.5376c0,6.6289,5.3926,12.0215,12.0205,12.0215h43.583c6.6289,0,12.0215-5.3926,12.0215-12.0215v-22.5376c0-6.6284-5.3926-12.021-12.0215-12.021h-43.583Z"></path></g><g><path class="n" d="M355.377,252.2328h66.1574c4.9425-2.2374,8.4616-4.9793,9.9879-8.0062h-86.1332c1.5262,3.027,5.0453,5.7688,9.9879,8.0062Z"></path><path class="l" d="M421.5342,252.8574h-66.1572c-.0889,0-.1768-.0186-.2578-.0557-5.1768-2.3438-8.7344-5.2109-10.2881-8.2939-.0986-.1934-.0879-.4238,.0254-.6094,.1143-.1846,.3154-.2969,.5322-.2969h86.1338c.2168,0,.418,.1123,.5322,.2969,.1133,.1855,.124,.416,.0254,.6094-1.5537,3.083-5.1113,5.9502-10.2881,8.2939-.0811,.0371-.1689,.0557-.2578,.0557Zm-66.0215-1.25h65.8857c4.3213-1.9727,7.418-4.291,9.0391-6.7559h-83.9639c1.6211,2.4648,4.7178,4.7832,9.0391,6.7559Z"></path></g></g><g><rect class="n" x="347.0162" y="266.3233" width="80.9774" height="19.6725" transform="translate(-30.607 48.9887) rotate(-6.9596)"></rect><path class="l" d="M348.5059,291.4541c-.3115,0-.5811-.2324-.6191-.5488l-2.3838-19.5273c-.0205-.165,.0254-.3311,.1279-.4609,.1025-.1309,.252-.2158,.416-.2354l80.3799-9.8115c.3525-.0361,.6543,.2012,.6963,.5439l2.3838,19.5273c.0205,.165-.0254,.3311-.1279,.4609-.1025,.1309-.252,.2158-.416,.2354l-80.3799,9.8115c-.0264,.0029-.0518,.0049-.0771,.0049Zm-1.6865-19.6074l2.2324,18.2861,79.1387-9.6602-2.2324-18.2861-79.1387,9.6602Z"></path></g><g><rect class="e" x="349.9114" y="300.6063" width="80.9775" height="19.6725" transform="translate(33.3085 -37.7993) rotate(5.7898)"></rect><path d="M352.0042,297.6678l78.5746,7.9671-1.7827,17.5824-78.5746-7.9671,1.7827-17.5824m-.894-1.0958l-1.9845,19.5722,80.5645,8.1689,1.9845-19.5722-80.5645-8.1689h0Z"></path></g><g><path class="o" d="M424.7648,147.9037c-4.093-5.4299-16.7175-11.2736-34.7648-11.2736s-30.6727,5.8437-34.7648,11.2732l-11.4477-8.6278c7.7747-10.3151,25.9139-16.9804,46.2125-16.9804s38.437,6.6648,46.2125,16.9799l-11.4477,8.6287Z"></path><path class="l" d="M424.7646,148.5288c-.0293,0-.0576-.002-.0869-.0059-.1641-.0234-.3125-.1104-.4121-.2432-4.002-5.3096-16.4316-11.0244-34.2656-11.0244s-30.2646,5.7144-34.2656,11.0239c-.0996,.1323-.248,.2197-.4121,.2432-.165,.0205-.3311-.021-.4629-.1201l-11.4482-8.6279c-.1328-.0996-.2197-.248-.2432-.4121-.0225-.1641,.0205-.3306,.1201-.4629,7.8896-10.4668,26.2246-17.2295,46.7119-17.2295s38.8213,6.7627,46.7119,17.2285c.0996,.1328,.1426,.2993,.1201,.4634-.0234,.1641-.1104,.3125-.2432,.4121l-11.4482,8.6289c-.1084,.082-.2412,.126-.376,.126Zm-34.7646-12.5234c17.7266,0,30.3252,5.6279,34.874,11.0337l10.457-7.8818c-7.8652-9.8823-25.5508-16.2373-45.3311-16.2373s-37.4668,6.355-45.3311,16.2373l10.457,7.8813c4.5479-5.4058,17.1465-11.0332,34.874-11.0332Z"></path></g><g><g><line class="d" x1="618.631" y1="123.5215" x2="655.8568" y2="151.7996"></line><path class="l" d="M655.8564,152.4248c-.1318,0-.2646-.0415-.3779-.1274l-37.2256-28.2783c-.2754-.2085-.3281-.6006-.1201-.8755,.209-.2754,.6006-.3296,.876-.1196l37.2256,28.2783c.2754,.2085,.3281,.6006,.1201,.8755-.123,.1621-.3096,.2471-.498,.2471Z"></path></g><polygon class="l" points="619.5264 222.7705 618.2764 222.7627 618.4238 199.0688 655.2881 151.3203 656.2783 152.084 619.6719 199.4985 619.5264 222.7705"></polygon><polygon class="l" points="613.0977 222.709 608.8936 199.0859 609.1064 198.8579 654.2041 150.4258 655.1182 151.2773 610.2334 199.4814 614.3281 222.4902 613.0977 222.709"></polygon><g><rect class="d" x="614.2174" y="222.925" width="4.1641" height="10.5637" rx="1.1355" ry="1.1355"></rect><path class="l" d="M617.2461,234.1133h-1.8936c-.9707,0-1.7598-.7891-1.7598-1.7598v-8.293c0-.9707,.7891-1.7607,1.7598-1.7607h1.8936c.9707,0,1.7607,.79,1.7607,1.7607v8.293c0,.9707-.79,1.7598-1.7607,1.7598Zm-1.8936-10.5635c-.2812,0-.5098,.2295-.5098,.5107v8.293c0,.2812,.2285,.5098,.5098,.5098h1.8936c.2812,0,.5107-.2285,.5107-.5098v-8.293c0-.2812-.2295-.5107-.5107-.5107h-1.8936Z"></path></g><g><rect class="d" x="612.1351" y="222.6607" width="8.3289" height="3.3613"></rect><path class="l" d="M620.4639,226.6475h-8.3291c-.3447,0-.625-.2803-.625-.625v-3.3613c0-.3447,.2803-.625,.625-.625h8.3291c.3447,0,.625,.2803,.625,.625v3.3613c0,.3447-.2803,.625-.625,.625Zm-7.7041-1.25h7.0791v-2.1113h-7.0791v2.1113Z"></path></g><g><path class="d" d="M621.0254,148.6512c1.3034-7.4996-.4169-16.4352-4.2615-22.0708l4.2473-18.0367c.035-.0669,.0625-.1364,.0796-.2093,.3031-1.2956-2.4077-3.0379-6.055-3.8914-3.6474-.8535-6.8499-.4951-7.1531,.8005-.0258,.1102-.028,.2237-.0115,.3396l-3.9341,16.7064c-7.3297,3.767-14.4848,15.2491-15.4472,17.6084-.0975,.239-.1766,.474-.2467,.7071l32.7824,8.0461Z"></path><path class="l" d="M621.0254,149.2764c-.0498,0-.0996-.0059-.1494-.0181l-32.7822-8.0464c-.166-.041-.3086-.1484-.3936-.2974s-.1045-.3262-.0557-.4902c.0762-.2505,.1611-.5039,.2656-.7607,.8525-2.0903,7.8271-13.6826,15.4834-17.7944l3.8457-16.3276c-.0107-.1533,.002-.3022,.0361-.4438,.1484-.6357,.7656-1.4473,2.8604-1.6816,1.4199-.1592,3.2109-.0112,5.043,.4185,3.583,.8389,6.9736,2.7026,6.5205,4.6421-.0234,.0962-.0547,.1885-.0957,.2783l-4.1689,17.7036c3.8369,5.7915,5.5264,14.709,4.207,22.2998-.0303,.1709-.1289,.3213-.2744,.416-.1025,.0674-.2217,.1021-.3418,.1021Zm-31.9688-9.1152l31.46,7.7217c1.0771-7.2446-.6064-15.5811-4.2695-20.9502-.0986-.1445-.1318-.3247-.0918-.4951l4.2471-18.0366c.0117-.0513,.0303-.1011,.0547-.1475,.1631-.6509-1.6846-2.2939-5.5635-3.2021-1.6973-.397-3.3389-.5366-4.6191-.3931-1.1377,.1274-1.7217,.4668-1.7832,.7275-.0068,.0312-.0078,.0664-.001,.1084,.0107,.0776,.0068,.1562-.0107,.2319l-3.9346,16.7065c-.042,.1782-.1602,.3291-.3223,.4126-7.0713,3.6343-14.1484,14.8232-15.1543,17.2891-.0039,.0088-.0078,.0181-.0117,.0269Z"></path></g><g><path class="d" d="M637.9309,238.9997c-1.0516-1.7845-10.1503-7.2126-21.4338-7.2126s-20.7313,5.4281-21.8248,7.2126h43.2587Z"></path><path class="l" d="M637.9307,239.625h-43.2588c-.2266,0-.4346-.1221-.5449-.3193-.1113-.1973-.1064-.4395,.0117-.6318,1.1826-1.9307,10.708-7.5117,22.3584-7.5117,11.5098,0,20.833,5.5879,21.9717,7.5205,.1143,.1934,.1162,.4326,.0049,.6279-.1113,.1943-.3184,.3145-.543,.3145Zm-41.7354-1.25h40.2197c-2.6885-2.0615-10.3379-5.9629-19.918-5.9629-9.2109,0-17.4316,3.8037-20.3018,5.9629Z"></path></g><g><circle class="d" cx="654.1126" cy="151.7023" r="3.1338"></circle><path class="l" d="M654.1123,155.4609c-2.0723,0-3.7588-1.686-3.7588-3.7588s1.6865-3.7588,3.7588-3.7588,3.7588,1.686,3.7588,3.7588-1.6865,3.7588-3.7588,3.7588Zm0-6.2676c-1.3838,0-2.5088,1.1255-2.5088,2.5088s1.125,2.5088,2.5088,2.5088,2.5088-1.1255,2.5088-2.5088-1.125-2.5088-2.5088-2.5088Z"></path></g></g><g><path class="n" d="M652.8982,275.969l-23.4658-22.5052-57.1743,38.9301,44.1327,42.3261,36.5075-58.7509Zm-24.3277,1.8798c-2.1177-2.0309-2.188-5.3942-.157-7.5118,2.031-2.1177,5.3942-2.188,7.5118-.157,2.1177,2.031,2.1879,5.3942,.1569,7.5119-2.0309,2.1177-5.3942,2.188-7.5117,.157Z"></path><path class="l" d="M616.3906,335.3447c-.1602,0-.3154-.0615-.4326-.1738l-44.1328-42.3262c-.1357-.1309-.2061-.3154-.1904-.5029,.0156-.1885,.1152-.3584,.2715-.4648l57.1748-38.9297c.2441-.165,.5703-.1396,.7842,.0654l23.4658,22.5049c.2129,.2041,.2539,.5303,.0986,.7812l-36.5078,58.751c-.0996,.1602-.2666,.2666-.4531,.29-.0264,.0029-.0518,.0049-.0781,.0049Zm-43.1436-42.8682l43.0195,41.2588,35.834-57.666-22.7354-21.8037-56.1182,38.2109Zm58.998-12.5244c-1.5391,0-2.9932-.584-4.1074-1.6523-2.3623-2.2656-2.4414-6.0312-.1758-8.3955,2.2666-2.3623,6.0332-2.4404,8.3965-.1758,1.1445,1.0986,1.793,2.5762,1.8262,4.1621s-.5537,3.0889-1.6514,4.2334-2.5752,1.7939-4.1611,1.8271c-.042,.001-.085,.001-.127,.001Zm.0039-10.623c-1.2334,0-2.4658,.4824-3.3848,1.4404-1.7891,1.8662-1.7266,4.8398,.1387,6.6279h0c.8799,.8438,2.0273,1.3047,3.2422,1.3047,.0342,0,.0674,0,.1006-.001,1.252-.0264,2.4189-.5381,3.2852-1.4424,.8672-.9033,1.3301-2.0908,1.3037-3.3428s-.5381-2.418-1.4414-3.2852c-.9072-.8701-2.0762-1.3018-3.2441-1.3018Z"></path></g><path class="l" d="M631.9775,274.9014c-.293,0-.5547-.207-.6123-.5068-.0654-.3389,.1553-.666,.4951-.7314,7.0498-1.3633,12.6045-4.2197,16.5088-8.4893,4.6348-5.0684,5.9629-16.2998,3.4668-29.3115-2.8662-14.9395-11.5293-34.96-26.5127-42.2148-.3105-.1504-.4404-.5244-.29-.835,.1494-.311,.5244-.4409,.835-.29,15.3994,7.457,24.2744,27.8804,27.1953,43.1045,2.6084,13.5947,1.1982,24.9551-3.7725,30.3906-4.0889,4.4717-9.874,7.457-17.1943,8.8721-.04,.0078-.0791,.0117-.1191,.0117Z"></path></g></svg>